<?xml version="1.0" encoding="iso-8859-1"?>
<!-- Generator: Adobe Illustrator 19.0.0, SVG Export Plug-In . SVG Version: 6.00 Build 0)  -->
<svg version="1.1" id="Layer_1" xmlns="http://www.w3.org/2000/svg" xmlns:xlink="http://www.w3.org/1999/xlink" x="0px" y="0px"
	 viewBox="0 0 512 512" style="enable-background:new 0 0 512 512;" xml:space="preserve">
<g>
	<polygon style="fill:#F37053;" points="360,464 360,416 408,416 	"/>
	<polygon style="fill:#F37053;" points="448,336 448,320 448,320 448,224 448,192 472,144 496,192 496,336 	"/>
</g>
<rect x="24" y="304" style="fill:#FFFFFF;" width="144" height="192"/>
<rect x="96" y="304" style="fill:#DCDDDE;" width="72" height="192"/>
<rect x="48" y="328" style="fill:#67C18C;" width="96" height="48"/>
<polygon style="fill:#FFFFFF;" points="88,16 408,16 408,400 344,400 344,464 184,464 184,288 88,288 "/>
<polygon style="fill:#53B7E8;" points="376,64 376,192 136,192 168,160 208,160 240,136 280,136 304,96 336,96 360,64 "/>
<g>
	<rect x="320" y="224" style="fill:#DCDDDE;" width="48" height="40"/>
	<rect x="224" y="224" style="fill:#DCDDDE;" width="48" height="40"/>
	<rect x="128" y="224" style="fill:#DCDDDE;" width="48" height="40"/>
</g>
<g>
	<path style="fill:#0C3847;" d="M472,120l-32,62.112V384h64V182.112L472,120z M472,153.888L483.056,176h-22.112L472,153.888z
		 M488,368h-32v-24h32V368z M488,328h-32V192h32V328z"/>
	<rect x="40" y="400" style="fill:#0C3847;" width="16" height="16"/>
	<rect x="72" y="400" style="fill:#0C3847;" width="16" height="16"/>
	<rect x="104" y="400" style="fill:#0C3847;" width="16" height="16"/>
	<rect x="40" y="432" style="fill:#0C3847;" width="16" height="16"/>
	<rect x="72" y="432" style="fill:#0C3847;" width="16" height="16"/>
	<rect x="104" y="432" style="fill:#0C3847;" width="16" height="16"/>
	<rect x="40" y="464" style="fill:#0C3847;" width="16" height="16"/>
	<rect x="72" y="464" style="fill:#0C3847;" width="16" height="16"/>
	<rect x="104" y="464" style="fill:#0C3847;" width="16" height="16"/>
	<rect x="136" y="400" style="fill:#0C3847;" width="16" height="16"/>
	<path style="fill:#0C3847;" d="M152,320H40v64h112V320z M136,368H56v-32h80V368z"/>
	<rect x="136" y="432" style="fill:#0C3847;" width="16" height="48"/>
	<polygon style="fill:#0C3847;" points="376,184 147.312,184 163.312,168 202.664,168 234.664,144 276.528,144 300.528,104 332,104 
		356,72 376,72 376,56 348,56 324,88 291.472,88 267.472,128 229.336,128 197.336,152 156.688,152 136,172.688 136,56 120,56 
		120,200 376,200 	"/>
	<path style="fill:#0C3847;" d="M312,272h64v-56h-64V272z M328,232h32v24h-32V232z"/>
	<path style="fill:#0C3847;" d="M216,216v56h64v-56H216z M264,256h-32v-24h32V256z"/>
	<path style="fill:#0C3847;" d="M184,216h-64v56h64V216z M168,256h-32v-24h32V256z"/>
	<rect x="216" y="296" style="fill:#0C3847;" width="144" height="16"/>
	<rect x="216" y="328" style="fill:#0C3847;" width="104" height="16"/>
	<rect x="216" y="360" style="fill:#0C3847;" width="128" height="16"/>
	<rect x="216" y="392" style="fill:#0C3847;" width="96" height="16"/>
	<path style="fill:#0C3847;" d="M72,288H8v224h176v-32h171.312L424,411.312V0H72V288z M168,496H24V304h144V496z M360,452.688V416
		h36.688L360,452.688z M88,16h320v384h-64v64H184V288H88V16z"/>
</g>
<rect x="456" y="344" style="fill:#FFFFFF;" width="32" height="24"/>
<g>
</g>
<g>
</g>
<g>
</g>
<g>
</g>
<g>
</g>
<g>
</g>
<g>
</g>
<g>
</g>
<g>
</g>
<g>
</g>
<g>
</g>
<g>
</g>
<g>
</g>
<g>
</g>
<g>
</g>
</svg>
